%TF.GenerationSoftware,KiCad,Pcbnew,7.0.1*%
%TF.CreationDate,2023-11-23T18:30:04+05:30*%
%TF.ProjectId,assign2,61737369-676e-4322-9e6b-696361645f70,rev?*%
%TF.SameCoordinates,Original*%
%TF.FileFunction,Legend,Top*%
%TF.FilePolarity,Positive*%
%FSLAX46Y46*%
G04 Gerber Fmt 4.6, Leading zero omitted, Abs format (unit mm)*
G04 Created by KiCad (PCBNEW 7.0.1) date 2023-11-23 18:30:04*
%MOMM*%
%LPD*%
G01*
G04 APERTURE LIST*
%ADD10C,0.150000*%
%ADD11C,0.120000*%
G04 APERTURE END LIST*
D10*
%TO.C,U2*%
X140278095Y-81277619D02*
X140278095Y-82087142D01*
X140278095Y-82087142D02*
X140325714Y-82182380D01*
X140325714Y-82182380D02*
X140373333Y-82230000D01*
X140373333Y-82230000D02*
X140468571Y-82277619D01*
X140468571Y-82277619D02*
X140659047Y-82277619D01*
X140659047Y-82277619D02*
X140754285Y-82230000D01*
X140754285Y-82230000D02*
X140801904Y-82182380D01*
X140801904Y-82182380D02*
X140849523Y-82087142D01*
X140849523Y-82087142D02*
X140849523Y-81277619D01*
X141278095Y-81372857D02*
X141325714Y-81325238D01*
X141325714Y-81325238D02*
X141420952Y-81277619D01*
X141420952Y-81277619D02*
X141659047Y-81277619D01*
X141659047Y-81277619D02*
X141754285Y-81325238D01*
X141754285Y-81325238D02*
X141801904Y-81372857D01*
X141801904Y-81372857D02*
X141849523Y-81468095D01*
X141849523Y-81468095D02*
X141849523Y-81563333D01*
X141849523Y-81563333D02*
X141801904Y-81706190D01*
X141801904Y-81706190D02*
X141230476Y-82277619D01*
X141230476Y-82277619D02*
X141849523Y-82277619D01*
%TO.C,U1*%
X146568095Y-72057619D02*
X146568095Y-72867142D01*
X146568095Y-72867142D02*
X146615714Y-72962380D01*
X146615714Y-72962380D02*
X146663333Y-73010000D01*
X146663333Y-73010000D02*
X146758571Y-73057619D01*
X146758571Y-73057619D02*
X146949047Y-73057619D01*
X146949047Y-73057619D02*
X147044285Y-73010000D01*
X147044285Y-73010000D02*
X147091904Y-72962380D01*
X147091904Y-72962380D02*
X147139523Y-72867142D01*
X147139523Y-72867142D02*
X147139523Y-72057619D01*
X148139523Y-73057619D02*
X147568095Y-73057619D01*
X147853809Y-73057619D02*
X147853809Y-72057619D01*
X147853809Y-72057619D02*
X147758571Y-72200476D01*
X147758571Y-72200476D02*
X147663333Y-72295714D01*
X147663333Y-72295714D02*
X147568095Y-72343333D01*
%TO.C,R7*%
X106513333Y-106062619D02*
X106180000Y-105586428D01*
X105941905Y-106062619D02*
X105941905Y-105062619D01*
X105941905Y-105062619D02*
X106322857Y-105062619D01*
X106322857Y-105062619D02*
X106418095Y-105110238D01*
X106418095Y-105110238D02*
X106465714Y-105157857D01*
X106465714Y-105157857D02*
X106513333Y-105253095D01*
X106513333Y-105253095D02*
X106513333Y-105395952D01*
X106513333Y-105395952D02*
X106465714Y-105491190D01*
X106465714Y-105491190D02*
X106418095Y-105538809D01*
X106418095Y-105538809D02*
X106322857Y-105586428D01*
X106322857Y-105586428D02*
X105941905Y-105586428D01*
X106846667Y-105062619D02*
X107513333Y-105062619D01*
X107513333Y-105062619D02*
X107084762Y-106062619D01*
%TO.C,R6*%
X98893333Y-67962619D02*
X98560000Y-67486428D01*
X98321905Y-67962619D02*
X98321905Y-66962619D01*
X98321905Y-66962619D02*
X98702857Y-66962619D01*
X98702857Y-66962619D02*
X98798095Y-67010238D01*
X98798095Y-67010238D02*
X98845714Y-67057857D01*
X98845714Y-67057857D02*
X98893333Y-67153095D01*
X98893333Y-67153095D02*
X98893333Y-67295952D01*
X98893333Y-67295952D02*
X98845714Y-67391190D01*
X98845714Y-67391190D02*
X98798095Y-67438809D01*
X98798095Y-67438809D02*
X98702857Y-67486428D01*
X98702857Y-67486428D02*
X98321905Y-67486428D01*
X99750476Y-66962619D02*
X99560000Y-66962619D01*
X99560000Y-66962619D02*
X99464762Y-67010238D01*
X99464762Y-67010238D02*
X99417143Y-67057857D01*
X99417143Y-67057857D02*
X99321905Y-67200714D01*
X99321905Y-67200714D02*
X99274286Y-67391190D01*
X99274286Y-67391190D02*
X99274286Y-67772142D01*
X99274286Y-67772142D02*
X99321905Y-67867380D01*
X99321905Y-67867380D02*
X99369524Y-67915000D01*
X99369524Y-67915000D02*
X99464762Y-67962619D01*
X99464762Y-67962619D02*
X99655238Y-67962619D01*
X99655238Y-67962619D02*
X99750476Y-67915000D01*
X99750476Y-67915000D02*
X99798095Y-67867380D01*
X99798095Y-67867380D02*
X99845714Y-67772142D01*
X99845714Y-67772142D02*
X99845714Y-67534047D01*
X99845714Y-67534047D02*
X99798095Y-67438809D01*
X99798095Y-67438809D02*
X99750476Y-67391190D01*
X99750476Y-67391190D02*
X99655238Y-67343571D01*
X99655238Y-67343571D02*
X99464762Y-67343571D01*
X99464762Y-67343571D02*
X99369524Y-67391190D01*
X99369524Y-67391190D02*
X99321905Y-67438809D01*
X99321905Y-67438809D02*
X99274286Y-67534047D01*
%TO.C,R5*%
X67848333Y-130512619D02*
X67515000Y-130036428D01*
X67276905Y-130512619D02*
X67276905Y-129512619D01*
X67276905Y-129512619D02*
X67657857Y-129512619D01*
X67657857Y-129512619D02*
X67753095Y-129560238D01*
X67753095Y-129560238D02*
X67800714Y-129607857D01*
X67800714Y-129607857D02*
X67848333Y-129703095D01*
X67848333Y-129703095D02*
X67848333Y-129845952D01*
X67848333Y-129845952D02*
X67800714Y-129941190D01*
X67800714Y-129941190D02*
X67753095Y-129988809D01*
X67753095Y-129988809D02*
X67657857Y-130036428D01*
X67657857Y-130036428D02*
X67276905Y-130036428D01*
X68753095Y-129512619D02*
X68276905Y-129512619D01*
X68276905Y-129512619D02*
X68229286Y-129988809D01*
X68229286Y-129988809D02*
X68276905Y-129941190D01*
X68276905Y-129941190D02*
X68372143Y-129893571D01*
X68372143Y-129893571D02*
X68610238Y-129893571D01*
X68610238Y-129893571D02*
X68705476Y-129941190D01*
X68705476Y-129941190D02*
X68753095Y-129988809D01*
X68753095Y-129988809D02*
X68800714Y-130084047D01*
X68800714Y-130084047D02*
X68800714Y-130322142D01*
X68800714Y-130322142D02*
X68753095Y-130417380D01*
X68753095Y-130417380D02*
X68705476Y-130465000D01*
X68705476Y-130465000D02*
X68610238Y-130512619D01*
X68610238Y-130512619D02*
X68372143Y-130512619D01*
X68372143Y-130512619D02*
X68276905Y-130465000D01*
X68276905Y-130465000D02*
X68229286Y-130417380D01*
%TO.C,R4*%
X38838333Y-49232619D02*
X38505000Y-48756428D01*
X38266905Y-49232619D02*
X38266905Y-48232619D01*
X38266905Y-48232619D02*
X38647857Y-48232619D01*
X38647857Y-48232619D02*
X38743095Y-48280238D01*
X38743095Y-48280238D02*
X38790714Y-48327857D01*
X38790714Y-48327857D02*
X38838333Y-48423095D01*
X38838333Y-48423095D02*
X38838333Y-48565952D01*
X38838333Y-48565952D02*
X38790714Y-48661190D01*
X38790714Y-48661190D02*
X38743095Y-48708809D01*
X38743095Y-48708809D02*
X38647857Y-48756428D01*
X38647857Y-48756428D02*
X38266905Y-48756428D01*
X39695476Y-48565952D02*
X39695476Y-49232619D01*
X39457381Y-48185000D02*
X39219286Y-48899285D01*
X39219286Y-48899285D02*
X39838333Y-48899285D01*
%TO.C,R3*%
X134002619Y-35726666D02*
X133526428Y-36059999D01*
X134002619Y-36298094D02*
X133002619Y-36298094D01*
X133002619Y-36298094D02*
X133002619Y-35917142D01*
X133002619Y-35917142D02*
X133050238Y-35821904D01*
X133050238Y-35821904D02*
X133097857Y-35774285D01*
X133097857Y-35774285D02*
X133193095Y-35726666D01*
X133193095Y-35726666D02*
X133335952Y-35726666D01*
X133335952Y-35726666D02*
X133431190Y-35774285D01*
X133431190Y-35774285D02*
X133478809Y-35821904D01*
X133478809Y-35821904D02*
X133526428Y-35917142D01*
X133526428Y-35917142D02*
X133526428Y-36298094D01*
X133002619Y-35393332D02*
X133002619Y-34774285D01*
X133002619Y-34774285D02*
X133383571Y-35107618D01*
X133383571Y-35107618D02*
X133383571Y-34964761D01*
X133383571Y-34964761D02*
X133431190Y-34869523D01*
X133431190Y-34869523D02*
X133478809Y-34821904D01*
X133478809Y-34821904D02*
X133574047Y-34774285D01*
X133574047Y-34774285D02*
X133812142Y-34774285D01*
X133812142Y-34774285D02*
X133907380Y-34821904D01*
X133907380Y-34821904D02*
X133955000Y-34869523D01*
X133955000Y-34869523D02*
X134002619Y-34964761D01*
X134002619Y-34964761D02*
X134002619Y-35250475D01*
X134002619Y-35250475D02*
X133955000Y-35345713D01*
X133955000Y-35345713D02*
X133907380Y-35393332D01*
%TO.C,R2*%
X106513333Y-50182619D02*
X106180000Y-49706428D01*
X105941905Y-50182619D02*
X105941905Y-49182619D01*
X105941905Y-49182619D02*
X106322857Y-49182619D01*
X106322857Y-49182619D02*
X106418095Y-49230238D01*
X106418095Y-49230238D02*
X106465714Y-49277857D01*
X106465714Y-49277857D02*
X106513333Y-49373095D01*
X106513333Y-49373095D02*
X106513333Y-49515952D01*
X106513333Y-49515952D02*
X106465714Y-49611190D01*
X106465714Y-49611190D02*
X106418095Y-49658809D01*
X106418095Y-49658809D02*
X106322857Y-49706428D01*
X106322857Y-49706428D02*
X105941905Y-49706428D01*
X106894286Y-49277857D02*
X106941905Y-49230238D01*
X106941905Y-49230238D02*
X107037143Y-49182619D01*
X107037143Y-49182619D02*
X107275238Y-49182619D01*
X107275238Y-49182619D02*
X107370476Y-49230238D01*
X107370476Y-49230238D02*
X107418095Y-49277857D01*
X107418095Y-49277857D02*
X107465714Y-49373095D01*
X107465714Y-49373095D02*
X107465714Y-49468333D01*
X107465714Y-49468333D02*
X107418095Y-49611190D01*
X107418095Y-49611190D02*
X106846667Y-50182619D01*
X106846667Y-50182619D02*
X107465714Y-50182619D01*
%TO.C,R1*%
X65873333Y-50182619D02*
X65540000Y-49706428D01*
X65301905Y-50182619D02*
X65301905Y-49182619D01*
X65301905Y-49182619D02*
X65682857Y-49182619D01*
X65682857Y-49182619D02*
X65778095Y-49230238D01*
X65778095Y-49230238D02*
X65825714Y-49277857D01*
X65825714Y-49277857D02*
X65873333Y-49373095D01*
X65873333Y-49373095D02*
X65873333Y-49515952D01*
X65873333Y-49515952D02*
X65825714Y-49611190D01*
X65825714Y-49611190D02*
X65778095Y-49658809D01*
X65778095Y-49658809D02*
X65682857Y-49706428D01*
X65682857Y-49706428D02*
X65301905Y-49706428D01*
X66825714Y-50182619D02*
X66254286Y-50182619D01*
X66540000Y-50182619D02*
X66540000Y-49182619D01*
X66540000Y-49182619D02*
X66444762Y-49325476D01*
X66444762Y-49325476D02*
X66349524Y-49420714D01*
X66349524Y-49420714D02*
X66254286Y-49468333D01*
%TO.C,J5*%
X134306666Y-95777619D02*
X134306666Y-96491904D01*
X134306666Y-96491904D02*
X134259047Y-96634761D01*
X134259047Y-96634761D02*
X134163809Y-96730000D01*
X134163809Y-96730000D02*
X134020952Y-96777619D01*
X134020952Y-96777619D02*
X133925714Y-96777619D01*
X135259047Y-95777619D02*
X134782857Y-95777619D01*
X134782857Y-95777619D02*
X134735238Y-96253809D01*
X134735238Y-96253809D02*
X134782857Y-96206190D01*
X134782857Y-96206190D02*
X134878095Y-96158571D01*
X134878095Y-96158571D02*
X135116190Y-96158571D01*
X135116190Y-96158571D02*
X135211428Y-96206190D01*
X135211428Y-96206190D02*
X135259047Y-96253809D01*
X135259047Y-96253809D02*
X135306666Y-96349047D01*
X135306666Y-96349047D02*
X135306666Y-96587142D01*
X135306666Y-96587142D02*
X135259047Y-96682380D01*
X135259047Y-96682380D02*
X135211428Y-96730000D01*
X135211428Y-96730000D02*
X135116190Y-96777619D01*
X135116190Y-96777619D02*
X134878095Y-96777619D01*
X134878095Y-96777619D02*
X134782857Y-96730000D01*
X134782857Y-96730000D02*
X134735238Y-96682380D01*
%TO.C,J3*%
X99426666Y-34792619D02*
X99426666Y-35506904D01*
X99426666Y-35506904D02*
X99379047Y-35649761D01*
X99379047Y-35649761D02*
X99283809Y-35745000D01*
X99283809Y-35745000D02*
X99140952Y-35792619D01*
X99140952Y-35792619D02*
X99045714Y-35792619D01*
X99807619Y-34792619D02*
X100426666Y-34792619D01*
X100426666Y-34792619D02*
X100093333Y-35173571D01*
X100093333Y-35173571D02*
X100236190Y-35173571D01*
X100236190Y-35173571D02*
X100331428Y-35221190D01*
X100331428Y-35221190D02*
X100379047Y-35268809D01*
X100379047Y-35268809D02*
X100426666Y-35364047D01*
X100426666Y-35364047D02*
X100426666Y-35602142D01*
X100426666Y-35602142D02*
X100379047Y-35697380D01*
X100379047Y-35697380D02*
X100331428Y-35745000D01*
X100331428Y-35745000D02*
X100236190Y-35792619D01*
X100236190Y-35792619D02*
X99950476Y-35792619D01*
X99950476Y-35792619D02*
X99855238Y-35745000D01*
X99855238Y-35745000D02*
X99807619Y-35697380D01*
%TO.C,J2*%
X88016666Y-56157619D02*
X88016666Y-56871904D01*
X88016666Y-56871904D02*
X87969047Y-57014761D01*
X87969047Y-57014761D02*
X87873809Y-57110000D01*
X87873809Y-57110000D02*
X87730952Y-57157619D01*
X87730952Y-57157619D02*
X87635714Y-57157619D01*
X88445238Y-56252857D02*
X88492857Y-56205238D01*
X88492857Y-56205238D02*
X88588095Y-56157619D01*
X88588095Y-56157619D02*
X88826190Y-56157619D01*
X88826190Y-56157619D02*
X88921428Y-56205238D01*
X88921428Y-56205238D02*
X88969047Y-56252857D01*
X88969047Y-56252857D02*
X89016666Y-56348095D01*
X89016666Y-56348095D02*
X89016666Y-56443333D01*
X89016666Y-56443333D02*
X88969047Y-56586190D01*
X88969047Y-56586190D02*
X88397619Y-57157619D01*
X88397619Y-57157619D02*
X89016666Y-57157619D01*
%TO.C,J1*%
X99426666Y-65272619D02*
X99426666Y-65986904D01*
X99426666Y-65986904D02*
X99379047Y-66129761D01*
X99379047Y-66129761D02*
X99283809Y-66225000D01*
X99283809Y-66225000D02*
X99140952Y-66272619D01*
X99140952Y-66272619D02*
X99045714Y-66272619D01*
X100426666Y-66272619D02*
X99855238Y-66272619D01*
X100140952Y-66272619D02*
X100140952Y-65272619D01*
X100140952Y-65272619D02*
X100045714Y-65415476D01*
X100045714Y-65415476D02*
X99950476Y-65510714D01*
X99950476Y-65510714D02*
X99855238Y-65558333D01*
%TO.C,H4*%
X82388095Y-143877619D02*
X82388095Y-142877619D01*
X82388095Y-143353809D02*
X82959523Y-143353809D01*
X82959523Y-143877619D02*
X82959523Y-142877619D01*
X83864285Y-143210952D02*
X83864285Y-143877619D01*
X83626190Y-142830000D02*
X83388095Y-143544285D01*
X83388095Y-143544285D02*
X84007142Y-143544285D01*
%TO.C,H3*%
X81047619Y-59851904D02*
X80047619Y-59851904D01*
X80523809Y-59851904D02*
X80523809Y-59280476D01*
X81047619Y-59280476D02*
X80047619Y-59280476D01*
X80047619Y-58899523D02*
X80047619Y-58280476D01*
X80047619Y-58280476D02*
X80428571Y-58613809D01*
X80428571Y-58613809D02*
X80428571Y-58470952D01*
X80428571Y-58470952D02*
X80476190Y-58375714D01*
X80476190Y-58375714D02*
X80523809Y-58328095D01*
X80523809Y-58328095D02*
X80619047Y-58280476D01*
X80619047Y-58280476D02*
X80857142Y-58280476D01*
X80857142Y-58280476D02*
X80952380Y-58328095D01*
X80952380Y-58328095D02*
X81000000Y-58375714D01*
X81000000Y-58375714D02*
X81047619Y-58470952D01*
X81047619Y-58470952D02*
X81047619Y-58756666D01*
X81047619Y-58756666D02*
X81000000Y-58851904D01*
X81000000Y-58851904D02*
X80952380Y-58899523D01*
%TO.C,H2*%
X92548095Y-20757619D02*
X92548095Y-19757619D01*
X92548095Y-20233809D02*
X93119523Y-20233809D01*
X93119523Y-20757619D02*
X93119523Y-19757619D01*
X93548095Y-19852857D02*
X93595714Y-19805238D01*
X93595714Y-19805238D02*
X93690952Y-19757619D01*
X93690952Y-19757619D02*
X93929047Y-19757619D01*
X93929047Y-19757619D02*
X94024285Y-19805238D01*
X94024285Y-19805238D02*
X94071904Y-19852857D01*
X94071904Y-19852857D02*
X94119523Y-19948095D01*
X94119523Y-19948095D02*
X94119523Y-20043333D01*
X94119523Y-20043333D02*
X94071904Y-20186190D01*
X94071904Y-20186190D02*
X93500476Y-20757619D01*
X93500476Y-20757619D02*
X94119523Y-20757619D01*
%TO.C,H1*%
X57658095Y-37902619D02*
X57658095Y-36902619D01*
X57658095Y-37378809D02*
X58229523Y-37378809D01*
X58229523Y-37902619D02*
X58229523Y-36902619D01*
X59229523Y-37902619D02*
X58658095Y-37902619D01*
X58943809Y-37902619D02*
X58943809Y-36902619D01*
X58943809Y-36902619D02*
X58848571Y-37045476D01*
X58848571Y-37045476D02*
X58753333Y-37140714D01*
X58753333Y-37140714D02*
X58658095Y-37188333D01*
%TO.C,C2*%
X137113333Y-59412380D02*
X137065714Y-59460000D01*
X137065714Y-59460000D02*
X136922857Y-59507619D01*
X136922857Y-59507619D02*
X136827619Y-59507619D01*
X136827619Y-59507619D02*
X136684762Y-59460000D01*
X136684762Y-59460000D02*
X136589524Y-59364761D01*
X136589524Y-59364761D02*
X136541905Y-59269523D01*
X136541905Y-59269523D02*
X136494286Y-59079047D01*
X136494286Y-59079047D02*
X136494286Y-58936190D01*
X136494286Y-58936190D02*
X136541905Y-58745714D01*
X136541905Y-58745714D02*
X136589524Y-58650476D01*
X136589524Y-58650476D02*
X136684762Y-58555238D01*
X136684762Y-58555238D02*
X136827619Y-58507619D01*
X136827619Y-58507619D02*
X136922857Y-58507619D01*
X136922857Y-58507619D02*
X137065714Y-58555238D01*
X137065714Y-58555238D02*
X137113333Y-58602857D01*
X137494286Y-58602857D02*
X137541905Y-58555238D01*
X137541905Y-58555238D02*
X137637143Y-58507619D01*
X137637143Y-58507619D02*
X137875238Y-58507619D01*
X137875238Y-58507619D02*
X137970476Y-58555238D01*
X137970476Y-58555238D02*
X138018095Y-58602857D01*
X138018095Y-58602857D02*
X138065714Y-58698095D01*
X138065714Y-58698095D02*
X138065714Y-58793333D01*
X138065714Y-58793333D02*
X138018095Y-58936190D01*
X138018095Y-58936190D02*
X137446667Y-59507619D01*
X137446667Y-59507619D02*
X138065714Y-59507619D01*
%TO.C,C1*%
X119213333Y-32799880D02*
X119165714Y-32847500D01*
X119165714Y-32847500D02*
X119022857Y-32895119D01*
X119022857Y-32895119D02*
X118927619Y-32895119D01*
X118927619Y-32895119D02*
X118784762Y-32847500D01*
X118784762Y-32847500D02*
X118689524Y-32752261D01*
X118689524Y-32752261D02*
X118641905Y-32657023D01*
X118641905Y-32657023D02*
X118594286Y-32466547D01*
X118594286Y-32466547D02*
X118594286Y-32323690D01*
X118594286Y-32323690D02*
X118641905Y-32133214D01*
X118641905Y-32133214D02*
X118689524Y-32037976D01*
X118689524Y-32037976D02*
X118784762Y-31942738D01*
X118784762Y-31942738D02*
X118927619Y-31895119D01*
X118927619Y-31895119D02*
X119022857Y-31895119D01*
X119022857Y-31895119D02*
X119165714Y-31942738D01*
X119165714Y-31942738D02*
X119213333Y-31990357D01*
X120165714Y-32895119D02*
X119594286Y-32895119D01*
X119880000Y-32895119D02*
X119880000Y-31895119D01*
X119880000Y-31895119D02*
X119784762Y-32037976D01*
X119784762Y-32037976D02*
X119689524Y-32133214D01*
X119689524Y-32133214D02*
X119594286Y-32180833D01*
D11*
%TO.C,U2*%
X143690000Y-88015000D02*
X143690000Y-82815000D01*
X138390000Y-88015000D02*
X143690000Y-88015000D01*
X138390000Y-82815000D02*
X138390000Y-88015000D01*
X143690000Y-82815000D02*
X142040000Y-82815000D01*
X140040000Y-82815000D02*
X138390000Y-82815000D01*
X140040000Y-82815000D02*
G75*
G03*
X142040000Y-82815000I1000000J0D01*
G01*
%TO.C,U1*%
X149980000Y-76255000D02*
X149980000Y-71055000D01*
X144680000Y-76255000D02*
X149980000Y-76255000D01*
X144680000Y-71055000D02*
X144680000Y-76255000D01*
X149980000Y-71055000D02*
X148330000Y-71055000D01*
X146330000Y-71055000D02*
X144680000Y-71055000D01*
X146330000Y-71055000D02*
G75*
G03*
X148330000Y-71055000I1000000J0D01*
G01*
%TO.C,R7*%
X97960000Y-109220000D02*
X98810000Y-109220000D01*
X98810000Y-106600000D02*
X98810000Y-111840000D01*
X114550000Y-106600000D02*
X98810000Y-106600000D01*
X114550000Y-111840000D02*
X114550000Y-106600000D01*
X98810000Y-111840000D02*
X114550000Y-111840000D01*
X115400000Y-109220000D02*
X114550000Y-109220000D01*
%TO.C,R6*%
X101400000Y-88395000D02*
X102250000Y-88395000D01*
X102250000Y-85775000D02*
X102250000Y-91015000D01*
X117990000Y-85775000D02*
X102250000Y-85775000D01*
X117990000Y-91015000D02*
X117990000Y-85775000D01*
X102250000Y-91015000D02*
X117990000Y-91015000D01*
X118840000Y-88395000D02*
X117990000Y-88395000D01*
%TO.C,R5*%
X71120000Y-110320000D02*
X71120000Y-109470000D01*
X68500000Y-109470000D02*
X73740000Y-109470000D01*
X68500000Y-93730000D02*
X68500000Y-109470000D01*
X73740000Y-93730000D02*
X68500000Y-93730000D01*
X73740000Y-109470000D02*
X73740000Y-93730000D01*
X71120000Y-92880000D02*
X71120000Y-93730000D01*
%TO.C,R4*%
X78740000Y-87460000D02*
X78740000Y-86610000D01*
X76120000Y-86610000D02*
X81360000Y-86610000D01*
X76120000Y-70870000D02*
X76120000Y-86610000D01*
X81360000Y-70870000D02*
X76120000Y-70870000D01*
X81360000Y-86610000D02*
X81360000Y-70870000D01*
X78740000Y-70020000D02*
X78740000Y-70870000D01*
%TO.C,R3*%
X137160000Y-44280000D02*
X137160000Y-43430000D01*
X134540000Y-43430000D02*
X139780000Y-43430000D01*
X134540000Y-27690000D02*
X134540000Y-43430000D01*
X139780000Y-27690000D02*
X134540000Y-27690000D01*
X139780000Y-43430000D02*
X139780000Y-27690000D01*
X137160000Y-26840000D02*
X137160000Y-27690000D01*
%TO.C,R2*%
X97960000Y-53340000D02*
X98810000Y-53340000D01*
X98810000Y-50720000D02*
X98810000Y-55960000D01*
X114550000Y-50720000D02*
X98810000Y-50720000D01*
X114550000Y-55960000D02*
X114550000Y-50720000D01*
X98810000Y-55960000D02*
X114550000Y-55960000D01*
X115400000Y-53340000D02*
X114550000Y-53340000D01*
%TO.C,R1*%
X57320000Y-53340000D02*
X58170000Y-53340000D01*
X58170000Y-50720000D02*
X58170000Y-55960000D01*
X73910000Y-50720000D02*
X58170000Y-50720000D01*
X73910000Y-55960000D02*
X73910000Y-50720000D01*
X58170000Y-55960000D02*
X73910000Y-55960000D01*
X74760000Y-53340000D02*
X73910000Y-53340000D01*
%TO.C,J5*%
X128930000Y-98567730D02*
X137560000Y-98567730D01*
X128930000Y-99491370D02*
X137560000Y-99491370D01*
X137560000Y-98725000D02*
X137910000Y-98725000D01*
X128930000Y-99606825D02*
X137560000Y-99606825D01*
X128930000Y-98221365D02*
X137560000Y-98221365D01*
X128930000Y-97875000D02*
X137560000Y-97875000D01*
X128930000Y-99145005D02*
X137560000Y-99145005D01*
X128930000Y-100184100D02*
X137560000Y-100184100D01*
X128930000Y-98105910D02*
X137560000Y-98105910D01*
X128930000Y-99029550D02*
X137560000Y-99029550D01*
X137560000Y-99445000D02*
X137910000Y-99445000D01*
X128930000Y-99375915D02*
X137560000Y-99375915D01*
X139020000Y-97755000D02*
X140130000Y-97755000D01*
X128930000Y-100068645D02*
X137560000Y-100068645D01*
X137560000Y-97755000D02*
X137560000Y-100415000D01*
X128930000Y-99260460D02*
X137560000Y-99260460D01*
X128930000Y-99837735D02*
X137560000Y-99837735D01*
X128930000Y-100415000D02*
X137560000Y-100415000D01*
X128930000Y-100299555D02*
X137560000Y-100299555D01*
X128930000Y-98683185D02*
X137560000Y-98683185D01*
X128930000Y-99953190D02*
X137560000Y-99953190D01*
X128930000Y-98798640D02*
X137560000Y-98798640D01*
X128930000Y-97755000D02*
X128930000Y-100415000D01*
X128930000Y-97755000D02*
X137560000Y-97755000D01*
X128930000Y-98452275D02*
X137560000Y-98452275D01*
X128930000Y-99722280D02*
X137560000Y-99722280D01*
X128930000Y-98336820D02*
X137560000Y-98336820D01*
X128930000Y-98914095D02*
X137560000Y-98914095D01*
X128930000Y-97990455D02*
X137560000Y-97990455D01*
X140130000Y-97755000D02*
X140130000Y-99085000D01*
%TO.C,J3*%
X94050000Y-37582730D02*
X102680000Y-37582730D01*
X94050000Y-38506370D02*
X102680000Y-38506370D01*
X102680000Y-37740000D02*
X103030000Y-37740000D01*
X94050000Y-38621825D02*
X102680000Y-38621825D01*
X94050000Y-37236365D02*
X102680000Y-37236365D01*
X94050000Y-36890000D02*
X102680000Y-36890000D01*
X94050000Y-38160005D02*
X102680000Y-38160005D01*
X94050000Y-39199100D02*
X102680000Y-39199100D01*
X94050000Y-37120910D02*
X102680000Y-37120910D01*
X94050000Y-38044550D02*
X102680000Y-38044550D01*
X102680000Y-38460000D02*
X103030000Y-38460000D01*
X94050000Y-38390915D02*
X102680000Y-38390915D01*
X104140000Y-36770000D02*
X105250000Y-36770000D01*
X94050000Y-39083645D02*
X102680000Y-39083645D01*
X102680000Y-36770000D02*
X102680000Y-39430000D01*
X94050000Y-38275460D02*
X102680000Y-38275460D01*
X94050000Y-38852735D02*
X102680000Y-38852735D01*
X94050000Y-39430000D02*
X102680000Y-39430000D01*
X94050000Y-39314555D02*
X102680000Y-39314555D01*
X94050000Y-37698185D02*
X102680000Y-37698185D01*
X94050000Y-38968190D02*
X102680000Y-38968190D01*
X94050000Y-37813640D02*
X102680000Y-37813640D01*
X94050000Y-36770000D02*
X94050000Y-39430000D01*
X94050000Y-36770000D02*
X102680000Y-36770000D01*
X94050000Y-37467275D02*
X102680000Y-37467275D01*
X94050000Y-38737280D02*
X102680000Y-38737280D01*
X94050000Y-37351820D02*
X102680000Y-37351820D01*
X94050000Y-37929095D02*
X102680000Y-37929095D01*
X94050000Y-37005455D02*
X102680000Y-37005455D01*
X105250000Y-36770000D02*
X105250000Y-38100000D01*
%TO.C,J2*%
X111830000Y-68062730D02*
X120460000Y-68062730D01*
X111830000Y-68986370D02*
X120460000Y-68986370D01*
X120460000Y-68220000D02*
X120810000Y-68220000D01*
X111830000Y-69101825D02*
X120460000Y-69101825D01*
X111830000Y-67716365D02*
X120460000Y-67716365D01*
X111830000Y-67370000D02*
X120460000Y-67370000D01*
X111830000Y-68640005D02*
X120460000Y-68640005D01*
X111830000Y-69679100D02*
X120460000Y-69679100D01*
X111830000Y-67600910D02*
X120460000Y-67600910D01*
X111830000Y-68524550D02*
X120460000Y-68524550D01*
X120460000Y-68940000D02*
X120810000Y-68940000D01*
X111830000Y-68870915D02*
X120460000Y-68870915D01*
X121920000Y-67250000D02*
X123030000Y-67250000D01*
X111830000Y-69563645D02*
X120460000Y-69563645D01*
X120460000Y-67250000D02*
X120460000Y-69910000D01*
X111830000Y-68755460D02*
X120460000Y-68755460D01*
X111830000Y-69332735D02*
X120460000Y-69332735D01*
X111830000Y-69910000D02*
X120460000Y-69910000D01*
X111830000Y-69794555D02*
X120460000Y-69794555D01*
X111830000Y-68178185D02*
X120460000Y-68178185D01*
X111830000Y-69448190D02*
X120460000Y-69448190D01*
X111830000Y-68293640D02*
X120460000Y-68293640D01*
X111830000Y-67250000D02*
X111830000Y-69910000D01*
X111830000Y-67250000D02*
X120460000Y-67250000D01*
X111830000Y-67947275D02*
X120460000Y-67947275D01*
X111830000Y-69217280D02*
X120460000Y-69217280D01*
X111830000Y-67831820D02*
X120460000Y-67831820D01*
X111830000Y-68409095D02*
X120460000Y-68409095D01*
X111830000Y-67485455D02*
X120460000Y-67485455D01*
X123030000Y-67250000D02*
X123030000Y-68580000D01*
%TO.C,J1*%
X94050000Y-68062730D02*
X102680000Y-68062730D01*
X94050000Y-68986370D02*
X102680000Y-68986370D01*
X102680000Y-68220000D02*
X103030000Y-68220000D01*
X94050000Y-69101825D02*
X102680000Y-69101825D01*
X94050000Y-67716365D02*
X102680000Y-67716365D01*
X94050000Y-67370000D02*
X102680000Y-67370000D01*
X94050000Y-68640005D02*
X102680000Y-68640005D01*
X94050000Y-69679100D02*
X102680000Y-69679100D01*
X94050000Y-67600910D02*
X102680000Y-67600910D01*
X94050000Y-68524550D02*
X102680000Y-68524550D01*
X102680000Y-68940000D02*
X103030000Y-68940000D01*
X94050000Y-68870915D02*
X102680000Y-68870915D01*
X104140000Y-67250000D02*
X105250000Y-67250000D01*
X94050000Y-69563645D02*
X102680000Y-69563645D01*
X102680000Y-67250000D02*
X102680000Y-69910000D01*
X94050000Y-68755460D02*
X102680000Y-68755460D01*
X94050000Y-69332735D02*
X102680000Y-69332735D01*
X94050000Y-69910000D02*
X102680000Y-69910000D01*
X94050000Y-69794555D02*
X102680000Y-69794555D01*
X94050000Y-68178185D02*
X102680000Y-68178185D01*
X94050000Y-69448190D02*
X102680000Y-69448190D01*
X94050000Y-68293640D02*
X102680000Y-68293640D01*
X94050000Y-67250000D02*
X94050000Y-69910000D01*
X94050000Y-67250000D02*
X102680000Y-67250000D01*
X94050000Y-67947275D02*
X102680000Y-67947275D01*
X94050000Y-69217280D02*
X102680000Y-69217280D01*
X94050000Y-67831820D02*
X102680000Y-67831820D01*
X94050000Y-68409095D02*
X102680000Y-68409095D01*
X94050000Y-67485455D02*
X102680000Y-67485455D01*
X105250000Y-67250000D02*
X105250000Y-68580000D01*
%TO.C,C2*%
X135160000Y-64785000D02*
X142400000Y-64785000D01*
X130410000Y-60215000D02*
X131910000Y-60215000D01*
X134410000Y-60795000D02*
X135160000Y-60045000D01*
X142400000Y-60045000D02*
X142400000Y-64785000D01*
X132160000Y-60045000D02*
X132160000Y-64785000D01*
X133660000Y-60045000D02*
X134410000Y-60795000D01*
X132160000Y-60045000D02*
X133660000Y-60045000D01*
X133660000Y-64785000D02*
X134410000Y-64035000D01*
X134410000Y-64035000D02*
X135160000Y-64785000D01*
X135160000Y-60045000D02*
X142400000Y-60045000D01*
X143540000Y-62415000D02*
X142400000Y-62415000D01*
X132160000Y-64785000D02*
X133660000Y-64785000D01*
X131160000Y-59465000D02*
X131160000Y-60965000D01*
X131020000Y-62415000D02*
X132160000Y-62415000D01*
%TO.C,C1*%
X117260000Y-38172500D02*
X124500000Y-38172500D01*
X112510000Y-33602500D02*
X114010000Y-33602500D01*
X116510000Y-34182500D02*
X117260000Y-33432500D01*
X124500000Y-33432500D02*
X124500000Y-38172500D01*
X114260000Y-33432500D02*
X114260000Y-38172500D01*
X115760000Y-33432500D02*
X116510000Y-34182500D01*
X114260000Y-33432500D02*
X115760000Y-33432500D01*
X115760000Y-38172500D02*
X116510000Y-37422500D01*
X116510000Y-37422500D02*
X117260000Y-38172500D01*
X117260000Y-33432500D02*
X124500000Y-33432500D01*
X125640000Y-35802500D02*
X124500000Y-35802500D01*
X114260000Y-38172500D02*
X115760000Y-38172500D01*
X113260000Y-32852500D02*
X113260000Y-34352500D01*
X113120000Y-35802500D02*
X114260000Y-35802500D01*
%TD*%
M02*
