%TF.GenerationSoftware,KiCad,Pcbnew,7.0.1*%
%TF.CreationDate,2023-11-23T18:30:04+05:30*%
%TF.ProjectId,assign2,61737369-676e-4322-9e6b-696361645f70,rev?*%
%TF.SameCoordinates,Original*%
%TF.FileFunction,Copper,L1,Top*%
%TF.FilePolarity,Positive*%
%FSLAX46Y46*%
G04 Gerber Fmt 4.6, Leading zero omitted, Abs format (unit mm)*
G04 Created by KiCad (PCBNEW 7.0.1) date 2023-11-23 18:30:04*
%MOMM*%
%LPD*%
G01*
G04 APERTURE LIST*
%TA.AperFunction,ComponentPad*%
%ADD10R,1.600000X1.600000*%
%TD*%
%TA.AperFunction,ComponentPad*%
%ADD11O,1.600000X1.600000*%
%TD*%
%TA.AperFunction,ComponentPad*%
%ADD12C,2.400000*%
%TD*%
%TA.AperFunction,ComponentPad*%
%ADD13O,2.400000X2.400000*%
%TD*%
%TA.AperFunction,ComponentPad*%
%ADD14R,1.700000X1.700000*%
%TD*%
%TA.AperFunction,ComponentPad*%
%ADD15R,2.000000X2.000000*%
%TD*%
%TA.AperFunction,ComponentPad*%
%ADD16O,2.000000X2.000000*%
%TD*%
%TA.AperFunction,Conductor*%
%ADD17C,0.250000*%
%TD*%
G04 APERTURE END LIST*
D10*
%TO.P,U2,1*%
%TO.N,Net-(J5-Pin_1)*%
X137230000Y-84145000D03*
D11*
%TO.P,U2,2,-*%
%TO.N,GND*%
X137230000Y-86685000D03*
%TO.P,U2,3,+*%
%TO.N,Net-(U2A-+)*%
X144850000Y-86685000D03*
%TO.P,U2,4,V-*%
%TO.N,GND*%
X144850000Y-84145000D03*
%TD*%
D10*
%TO.P,U1,1*%
%TO.N,Net-(J2-Pin_1)*%
X143520000Y-72385000D03*
D11*
%TO.P,U1,2,-*%
%TO.N,Net-(U1A--)*%
X143520000Y-74925000D03*
%TO.P,U1,3,+*%
%TO.N,Net-(U1A-+)*%
X151140000Y-74925000D03*
%TO.P,U1,4,V-*%
%TO.N,GND*%
X151140000Y-72385000D03*
%TD*%
D12*
%TO.P,R7,1*%
%TO.N,Net-(U1A--)*%
X96520000Y-109220000D03*
D13*
%TO.P,R7,2*%
%TO.N,GND*%
X116840000Y-109220000D03*
%TD*%
D12*
%TO.P,R6,1*%
%TO.N,Net-(U1A--)*%
X99960000Y-88395000D03*
D13*
%TO.P,R6,2*%
%TO.N,Net-(J3-Pin_1)*%
X120280000Y-88395000D03*
%TD*%
D12*
%TO.P,R5,1*%
%TO.N,Net-(J1-Pin_1)*%
X71120000Y-111760000D03*
D13*
%TO.P,R5,2*%
%TO.N,Net-(U1A-+)*%
X71120000Y-91440000D03*
%TD*%
D12*
%TO.P,R4,1*%
%TO.N,Net-(U1A-+)*%
X78740000Y-88900000D03*
D13*
%TO.P,R4,2*%
%TO.N,Net-(J5-Pin_1)*%
X78740000Y-68580000D03*
%TD*%
D12*
%TO.P,R3,1*%
%TO.N,Net-(J3-Pin_1)*%
X137160000Y-45720000D03*
D13*
%TO.P,R3,2*%
%TO.N,Net-(U2A-+)*%
X137160000Y-25400000D03*
%TD*%
D12*
%TO.P,R2,1*%
%TO.N,Net-(J2-Pin_1)*%
X96520000Y-53340000D03*
D13*
%TO.P,R2,2*%
%TO.N,Net-(U1B-+)*%
X116840000Y-53340000D03*
%TD*%
D12*
%TO.P,R1,1*%
%TO.N,Net-(U1A-+)*%
X55880000Y-53340000D03*
D13*
%TO.P,R1,2*%
%TO.N,Net-(J2-Pin_1)*%
X76200000Y-53340000D03*
%TD*%
D14*
%TO.P,J5,1,Pin_1*%
%TO.N,Net-(J5-Pin_1)*%
X139020000Y-99085000D03*
%TD*%
%TO.P,J3,1,Pin_1*%
%TO.N,Net-(J3-Pin_1)*%
X104140000Y-38100000D03*
%TD*%
%TO.P,J2,1,Pin_1*%
%TO.N,Net-(J2-Pin_1)*%
X121920000Y-68580000D03*
%TD*%
%TO.P,J1,1,Pin_1*%
%TO.N,Net-(J1-Pin_1)*%
X104140000Y-68580000D03*
%TD*%
D15*
%TO.P,C2,1*%
%TO.N,Net-(U2A-+)*%
X129780000Y-62415000D03*
D16*
%TO.P,C2,2*%
%TO.N,Net-(J5-Pin_1)*%
X144780000Y-62415000D03*
%TD*%
D15*
%TO.P,C1,1*%
%TO.N,Net-(U1B-+)*%
X111880000Y-35802500D03*
D16*
%TO.P,C1,2*%
%TO.N,Net-(J3-Pin_1)*%
X126880000Y-35802500D03*
%TD*%
D17*
%TO.N,Net-(U2A-+)*%
X129540000Y-33020000D02*
X129540000Y-62655000D01*
X129540000Y-62655000D02*
X129780000Y-62415000D01*
X137160000Y-25400000D02*
X129540000Y-33020000D01*
%TO.N,Net-(U1B-+)*%
X104087500Y-35802500D02*
X111880000Y-35802500D01*
X102965000Y-36925000D02*
X104087500Y-35802500D01*
X102965000Y-39465000D02*
X102965000Y-36925000D01*
X116840000Y-53340000D02*
X102965000Y-39465000D01*
%TO.N,Net-(J3-Pin_1)*%
X126880000Y-35680000D02*
X126880000Y-35802500D01*
X124460000Y-38100000D02*
X126880000Y-35680000D01*
X104140000Y-38100000D02*
X124460000Y-38100000D01*
%TO.N,Net-(J2-Pin_1)*%
X76200000Y-53340000D02*
X96520000Y-53340000D01*
%TO.N,Net-(U1A-+)*%
X76200000Y-91440000D02*
X78740000Y-88900000D01*
X71120000Y-91440000D02*
X76200000Y-91440000D01*
X55880000Y-53340000D02*
X71120000Y-68580000D01*
X71120000Y-68580000D02*
X71120000Y-91440000D01*
%TO.N,Net-(J2-Pin_1)*%
X139715000Y-68580000D02*
X143520000Y-72385000D01*
X121920000Y-68580000D02*
X139715000Y-68580000D01*
X106680000Y-53340000D02*
X121920000Y-68580000D01*
X96520000Y-53340000D02*
X106680000Y-53340000D01*
%TO.N,Net-(J5-Pin_1)*%
X144780000Y-66040000D02*
X149860000Y-71120000D01*
X144780000Y-62415000D02*
X144780000Y-66040000D01*
X137160000Y-83820000D02*
X137160000Y-84075000D01*
X144645000Y-74459009D02*
X144645000Y-76335000D01*
X137160000Y-84075000D02*
X137230000Y-84145000D01*
X144645000Y-76335000D02*
X137160000Y-83820000D01*
X143985991Y-73800000D02*
X144645000Y-74459009D01*
X83960000Y-73800000D02*
X143985991Y-73800000D01*
X78740000Y-68580000D02*
X83960000Y-73800000D01*
X153300000Y-72954009D02*
X151605991Y-71260000D01*
X153300000Y-84805000D02*
X153300000Y-72954009D01*
X151605991Y-71260000D02*
X150115000Y-71260000D01*
X139020000Y-99085000D02*
X153300000Y-84805000D01*
X150115000Y-71260000D02*
X137230000Y-84145000D01*
%TO.N,GND*%
X150705000Y-73210000D02*
X137230000Y-86685000D01*
X152586396Y-73210000D02*
X150705000Y-73210000D01*
X152850000Y-74907056D02*
X152850000Y-73473604D01*
X118537056Y-109220000D02*
X152850000Y-74907056D01*
X152850000Y-73473604D02*
X152586396Y-73210000D01*
X116840000Y-109220000D02*
X118537056Y-109220000D01*
%TO.N,Net-(U1A-+)*%
X135960000Y-90100000D02*
X152400000Y-73660000D01*
X79940000Y-90100000D02*
X135960000Y-90100000D01*
X78740000Y-88900000D02*
X79940000Y-90100000D01*
%TO.N,Net-(U1A--)*%
X113430000Y-74925000D02*
X143520000Y-74925000D01*
X99960000Y-88395000D02*
X113430000Y-74925000D01*
%TD*%
M02*
