M48
; DRILL file {KiCad 7.0.1} date Thu Nov 23 18:30:52 2023
; FORMAT={-:-/ absolute / inch / decimal}
; #@! TF.CreationDate,2023-11-23T18:30:52+05:30
; #@! TF.GenerationSoftware,Kicad,Pcbnew,7.0.1
; #@! TF.FileFunction,Plated,1,2,PTH
FMAT,2
INCH
; #@! TA.AperFunction,Plated,PTH,ComponentDrill
T1C0.0315
; #@! TA.AperFunction,Plated,PTH,ComponentDrill
T2C0.0394
; #@! TA.AperFunction,Plated,PTH,ComponentDrill
T3C0.0472
%
G90
G05
T1
X5.4028Y-3.3128
X5.4028Y-3.4128
X5.6504Y-2.8498
X5.6504Y-2.9498
X5.7028Y-3.3128
X5.7028Y-3.4128
X5.9504Y-2.8498
X5.9504Y-2.9498
T2
X4.1Y-1.5
X4.1Y-2.7
X4.4047Y-1.4095
X4.8Y-2.7
X4.9953Y-1.4095
X5.1094Y-2.4573
X5.4732Y-3.901
X5.7Y-2.4573
T3
X2.2Y-2.1
X2.8Y-3.6
X2.8Y-4.4
X3.0Y-2.1
X3.1Y-2.7
X3.1Y-3.5
X3.8Y-2.1
X3.8Y-4.3
X3.9354Y-3.4801
X4.6Y-2.1
X4.6Y-4.3
X4.7354Y-3.4801
X5.4Y-1.0
X5.4Y-1.8
T0
M30
